<?xml version="1.0" encoding="utf-8"?>
<!-- Generator: Adobe Illustrator 16.0.4, SVG Export Plug-In . SVG Version: 6.00 Build 0)  -->
<!DOCTYPE svg PUBLIC "-//W3C//DTD SVG 1.1//EN" "http://www.w3.org/Graphics/SVG/1.1/DTD/svg11.dtd">
<svg version="1.1" id="Layer_1" xmlns="http://www.w3.org/2000/svg" xmlns:xlink="http://www.w3.org/1999/xlink" x="0px" y="0px"
	 width="18px" height="18px" viewBox="0 0 18 18" enable-background="new 0 0 18 18" xml:space="preserve">
<path d="M16.503,15.135l-4.104-4.104c0.846-1.127,1.352-2.521,1.352-4.036c0-3.724-3.029-6.752-6.752-6.752
	c-3.724,0-6.752,3.029-6.752,6.752c0,3.723,3.029,6.753,6.752,6.753c1.515,0,2.909-0.508,4.037-1.354l4.104,4.105
	c0.188,0.188,0.494,0.188,0.682,0l0.683-0.684C16.691,15.629,16.691,15.323,16.503,15.135z M2,7c0-2.757,2.243-5,5-5s5,2.243,5,5
	s-2.243,5-5,5S2,9.757,2,7z"/>
</svg>
