<svg>
  <defs>

    <g id="trade-direction-short">
      <polygon fill="#000000" points="22,0 22,19.172 2.829,0 0,2.828 19.17,22 0,22 0,26 26,26 26,0 "/>
    <g>

  	<g id="trade-direction-long">
      <polygon fill="#000000" points="0,4 19.172,4 0,23.171 2.828,26 22,6.83 22,26 26,26 26,0 0,0 "/>
    <g>

  	<g id="edit-icon">
      <path fill="#231F20" d="M30.534,3.467c-2.764-2.76-5.957-4.043-7.136-2.864L0,24v6v4h4h6l23.399-23.398
  C34.573,9.423,33.294,6.229,30.534,3.467z M3,26.68L24.316,5.363c0.521,0.789,1.174,1.598,1.949,2.373
  c0.774,0.775,1.582,1.428,2.371,1.949L7.32,31H3V26.68z"/>
      <path fill="#231F20" d="M6,31c0-1.656-1.344-3-3-3v3H6z"/>
      <circle fill="#231F20" cx="16" cy="34" r="2"/>
      <circle fill="#231F20" cx="23" cy="34" r="2"/>
      <circle fill="#231F20" cx="30" cy="34" r="2"/>
    <g>

  </defs>
</svg>